<?xml version="1.0" standalone="no"?>
<!DOCTYPE svg PUBLIC "-//W3C//DTD SVG 20010904//EN"
 "http://www.w3.org/TR/2001/REC-SVG-20010904/DTD/svg10.dtd">
<svg version="1.0" xmlns="http://www.w3.org/2000/svg"
 width="512.000000pt" height="512.000000pt" viewBox="0 0 512.000000 512.000000"
 preserveAspectRatio="xMidYMid meet">

<g transform="translate(0.000000,512.000000) scale(0.100000,-0.100000)"
fill="#FFF" stroke="none">
<path d="M2178 5089 c-61 -32 -78 -77 -78 -211 l0 -113 -110 -27 c-195 -49
-399 -134 -586 -243 l-96 -57 -87 85 c-95 94 -131 109 -199 89 -54 -16 -517
-482 -527 -530 -14 -68 1 -101 92 -193 l85 -88 -52 -85 c-109 -181 -227 -473
-260 -643 l-13 -63 -114 0 c-137 0 -181 -16 -213 -80 -19 -37 -20 -58 -20
-370 0 -312 1 -333 20 -370 32 -64 76 -80 213 -80 l114 0 13 -62 c33 -171 151
-463 260 -644 l52 -85 -85 -88 c-67 -68 -87 -95 -92 -125 -15 -77 -2 -95 257
-353 206 -205 249 -242 280 -248 67 -13 97 2 189 92 l86 84 122 -70 c188 -107
400 -192 594 -237 l77 -18 0 -113 c0 -137 16 -181 80 -213 37 -19 58 -20 370
-20 312 0 333 1 370 20 26 13 47 34 60 60 19 38 20 58 20 619 l0 580 -52 -18
c-29 -10 -93 -27 -143 -37 -122 -26 -383 -26 -505 -1 -282 59 -503 178 -705
381 -198 199 -313 415 -372 696 -24 118 -24 382 0 500 59 281 174 496 372 696
200 202 422 322 705 381 122 25 383 25 505 -1 50 -10 114 -27 143 -37 l52 -18
0 580 c0 561 -1 581 -20 619 -13 26 -34 47 -60 60 -37 19 -58 20 -372 20 -312
-1 -335 -2 -370 -21z"/>
<path d="M3927 5050 c-101 -26 -200 -100 -249 -187 l-30 -53 -174 0 -174 0 0
-150 0 -150 174 0 174 0 30 -53 c39 -68 98 -122 181 -161 60 -28 75 -31 161
-31 86 0 101 3 162 32 93 44 151 100 196 191 35 72 37 81 37 172 0 91 -2 100
-37 172 -68 136 -188 217 -336 224 -42 2 -94 -1 -115 -6z"/>
<path d="M4626 4200 c-63 -16 -153 -70 -197 -117 -22 -24 -55 -74 -72 -111
-26 -56 -31 -78 -31 -147 -1 -44 2 -95 6 -112 7 -33 6 -34 -154 -168 l-162
-135 -358 0 -358 0 0 -150 0 -150 399 0 c220 0 410 4 423 9 13 5 111 82 218
171 155 129 198 160 214 155 98 -31 126 -36 194 -31 144 9 264 91 330 224 35
72 37 81 37 172 0 91 -2 100 -37 172 -68 136 -188 217 -336 224 -42 2 -94 -1
-116 -6z"/>
<path d="M2395 3599 c-209 -30 -429 -142 -586 -298 -135 -136 -230 -303 -280
-497 -32 -122 -33 -369 -1 -484 127 -467 500 -780 962 -807 138 -8 259 9 395
55 l110 37 0 955 0 955 -110 37 c-164 55 -326 70 -490 47z"/>
<path d="M4627 2950 c-101 -26 -200 -100 -249 -187 l-30 -53 -524 0 -524 0 0
-150 0 -150 524 0 524 0 30 -53 c39 -68 98 -122 181 -161 60 -28 75 -31 161
-31 86 0 101 3 162 32 93 44 151 100 196 191 35 72 37 81 37 172 0 91 -2 100
-37 172 -68 136 -188 217 -336 224 -42 2 -94 -1 -115 -6z"/>
<path d="M3300 1860 l0 -150 358 0 358 0 162 -135 c160 -134 161 -135 154
-168 -4 -17 -7 -69 -6 -114 0 -73 4 -89 37 -156 44 -90 103 -147 195 -190 61
-29 76 -32 162 -32 86 0 101 3 162 32 93 44 151 100 196 191 35 72 37 81 37
172 0 91 -2 100 -37 172 -66 133 -186 215 -330 224 -68 5 -96 0 -194 -31 -16
-5 -59 26 -214 155 -107 89 -205 166 -218 171 -13 5 -203 9 -423 9 l-399 0 0
-150z"/>
<path d="M3927 850 c-101 -26 -200 -100 -249 -187 l-30 -53 -174 0 -174 0 0
-150 0 -150 174 0 174 0 30 -53 c39 -68 98 -122 181 -161 60 -28 75 -31 161
-31 86 0 101 3 162 32 93 44 151 100 196 191 35 72 37 81 37 172 0 91 -2 100
-37 172 -68 136 -188 217 -336 224 -42 2 -94 -1 -115 -6z"/>
</g>
</svg>
